# xmcd CD database file
#
# Track frame offsets:
#	150
#	13040
#	27507
#	41908
#	57418
#	79364
#	93750
#	109710
#	123046
#	138550
#	153548
#	166065
#	181283
#	195746
#	208938
#	218241
#	231967
#
# Disc length: 3295 seconds
#
# Revision: 0
# Processed by: cddbd v1.4PL0 Copyright (c) Steve Scherf et al.
# Submitted via: CDex 1.50beta9
#
DISCID=ef0cdd11
DTITLE=Honza Vycital and Greenhorns - Dalas!
DYEAR=2003
DGENRE=Country
TTITLE0=Dalas
TTITLE1=Rychla jizda z lepsich casu k zlym
TTITLE2=Stribrny duch
TTITLE3=Ze vsech snu mi zbyla ta tva Golden Gate
TTITLE4=Claude Dallas
TTITLE5=Country zna
TTITLE6=Dobrodruzstvi sesti trampu
TTITLE7=Bye, bye, balim
TTITLE8=Chlap na pobrezi
TTITLE9=Ja do piva neslzim
TTITLE10=Jestrab cas
TTITLE11=Nic nezmuzu s tim
TTITLE12=Az se vcera vecer odpoledne setmi
TTITLE13=Skoro uplne, ne vsak dost
TTITLE14=Pojd se mnou par dni nadherne zit
TTITLE15=Videt svet ze strech mrakodrapu
TTITLE16=Ameriko, Tve hvezdy sviti dal
EXTD=YEAR: 2003
EXTT0=
EXTT1=
EXTT2=
EXTT3=
EXTT4=
EXTT5=
EXTT6=
EXTT7=
EXTT8=
EXTT9=
EXTT10=
EXTT11=
EXTT12=
EXTT13=
EXTT14=
EXTT15=
EXTT16=
PLAYORDER=
